<svg width="36" height="37" viewBox="0 0 36 37" fill="none" xmlns="http://www.w3.org/2000/svg">
<g clip-path="url(#clip0_386_2516)">
<path d="M19.8932 31.564V20.4132H23.6357L24.1961 16.0727H19.8932V13.3007C19.8932 12.0432 20.2418 11.1869 22.0447 11.1869H24.3478V7.30025C23.9466 7.24759 22.5825 7.12598 20.9915 7.12598C17.6741 7.12598 15.4011 9.14827 15.4011 12.8681V16.0727H11.6511V20.4132H15.4086V31.564H19.8932Z" fill="#98A2B3"/>
<path d="M28.4713 1.94541C31.7924 1.94541 34.4943 4.64723 34.4943 7.9684V28.9122C34.4943 32.2334 31.7924 34.9352 28.4713 34.9352H7.52748C4.20631 34.9352 1.50449 32.2334 1.50449 28.9122V7.9684C1.50449 4.64723 4.20631 1.94541 7.52748 1.94541H28.4713ZM28.4713 0.440918H7.52748C3.37006 0.440918 0 3.81098 0 7.9684V28.9122C0 33.0696 3.37006 36.4397 7.52748 36.4397H28.4713C32.6287 36.4397 35.9987 33.0696 35.9987 28.9122V7.9684C35.9987 3.81098 32.6287 0.440918 28.4713 0.440918Z" fill="#98A2B3"/>
</g>
<defs>
<clipPath id="clip0_386_2516">
<rect width="36" height="36" fill="white" transform="translate(0 0.440918)"/>
</clipPath>
</defs>
</svg>
