<svg width="36" height="37" viewBox="0 0 36 37" fill="none" xmlns="http://www.w3.org/2000/svg">
<g clip-path="url(#clip0_386_2522)">
<path d="M28.4713 1.94541C31.7924 1.94541 34.4943 4.64723 34.4943 7.9684V28.9122C34.4943 32.2334 31.7924 34.9352 28.4713 34.9352H7.52748C4.20631 34.9352 1.50449 32.2334 1.50449 28.9122V7.9684C1.50449 4.64723 4.20631 1.94541 7.52748 1.94541H28.4713ZM28.4713 0.440918H7.52748C3.37006 0.440918 0 3.81098 0 7.9684V28.9122C0 33.0696 3.37006 36.4397 7.52748 36.4397H28.4713C32.6287 36.4397 35.9987 33.0696 35.9987 28.9122V7.9684C35.9987 3.81098 32.6287 0.440918 28.4713 0.440918Z" fill="#98A2B3"/>
<path d="M13.3022 7.17743C12.0948 7.23385 11.2711 7.42818 10.5502 7.71028C9.80423 8.00114 9.17234 8.39106 8.54422 9.02169C7.91484 9.65358 7.52868 10.2867 7.23907 11.0327C6.95948 11.7549 6.77017 12.5798 6.71751 13.7872C6.66485 14.997 6.65232 15.3832 6.65858 18.4624C6.66485 21.5416 6.67864 21.929 6.73632 23.1388C6.79399 24.3449 6.98707 25.1699 7.26916 25.8896C7.56003 26.6355 7.94994 27.2674 8.58057 27.8956C9.21246 28.5249 9.8456 28.9111 10.5928 29.1994C11.3137 29.4778 12.1387 29.6683 13.3461 29.721C14.5559 29.7749 14.9421 29.7862 18.0213 29.7799C21.1017 29.7737 21.4879 29.7599 22.6977 29.7034C23.9051 29.6458 24.7275 29.4527 25.4497 29.1706C26.1957 28.8785 26.8276 28.4898 27.4557 27.8592C28.0851 27.2273 28.4712 26.5942 28.7596 25.8469C29.0392 25.126 29.2285 24.3011 29.2811 23.0937C29.3338 21.8826 29.3463 21.4964 29.3401 18.4172C29.3338 15.3368 29.32 14.9519 29.2623 13.742C29.2047 12.5347 29.0116 11.711 28.7295 10.9901C28.4386 10.2441 28.0487 9.61346 27.4181 8.98408C26.7862 8.3547 26.153 7.96855 25.4058 7.68019C24.6837 7.4006 23.8599 7.21003 22.6526 7.15863C21.4427 7.10472 21.0566 7.09343 17.9761 7.0997C14.8969 7.10597 14.5108 7.11851 13.3009 7.17743M13.4351 27.6812C12.3293 27.6335 11.7287 27.4492 11.3288 27.295C10.7984 27.0894 10.4211 26.8437 10.0224 26.4487C9.62494 26.0525 9.37795 25.6752 9.17109 25.1461C9.01562 24.7461 8.82882 24.1456 8.77616 23.0398C8.71974 21.8437 8.7072 21.4852 8.70093 18.4574C8.69466 15.4296 8.70595 15.071 8.75861 13.8737C8.80625 12.7691 8.99055 12.1673 9.14476 11.7674C9.35037 11.2371 9.59485 10.8597 9.99104 10.461C10.3872 10.0636 10.7646 9.81657 11.2937 9.6097C11.6936 9.45298 12.2929 9.26743 13.3987 9.21477C14.5948 9.15835 14.9534 9.14581 17.9811 9.13954C21.0102 9.13327 21.3688 9.14456 22.5648 9.19722C23.6694 9.24486 24.2712 9.4279 24.6711 9.58337C25.2015 9.78898 25.5801 10.0322 25.9775 10.4296C26.375 10.8258 26.6219 11.202 26.8288 11.7323C26.9855 12.131 27.1711 12.7315 27.2225 13.8361C27.2789 15.0321 27.2927 15.3907 27.2977 18.4185C27.304 21.4475 27.2927 21.8061 27.24 23.0022C27.1924 24.108 27.0081 24.7085 26.8539 25.1097C26.6483 25.6388 26.4038 26.0174 26.0076 26.4149C25.6114 26.8111 25.2341 27.0593 24.705 27.2662C24.3063 27.4216 23.7057 27.6084 22.6012 27.6611C21.4051 27.7175 21.0465 27.7301 18.0175 27.7363C14.9897 27.7426 14.6311 27.7313 13.4351 27.6787M22.6814 12.378C22.6827 13.129 23.2933 13.737 24.0443 13.7358C24.7952 13.7345 25.4046 13.1239 25.4033 12.3729C25.4021 11.622 24.7915 11.0126 24.0392 11.0151C23.2882 11.0164 22.6789 11.627 22.6814 12.378ZM12.1763 18.4524C12.1826 21.6695 14.7954 24.271 18.0112 24.2647C21.2271 24.2584 23.8311 21.6469 23.8248 18.4298C23.8186 15.2139 21.2058 12.6112 17.9887 12.6174C14.7728 12.6237 12.17 15.2365 12.1763 18.4524ZM14.2187 18.4473C14.2149 16.3599 15.9049 14.6635 17.9924 14.6598C20.0799 14.656 21.7762 16.3448 21.78 18.4323C21.7838 20.521 20.0937 22.2161 18.0062 22.2199C15.9187 22.2236 14.2224 20.5348 14.2187 18.4461" fill="#98A2B3"/>
</g>
<defs>
<clipPath id="clip0_386_2522">
<rect width="36" height="36" fill="white" transform="translate(0 0.440918)"/>
</clipPath>
</defs>
</svg>
