<svg width="36" height="37" viewBox="0 0 36 37" fill="none" xmlns="http://www.w3.org/2000/svg">
<g clip-path="url(#clip0_386_2512)">
<path fill-rule="evenodd" clip-rule="evenodd" d="M12.8922 27.384V15.3154H8.88152V27.384H12.8922ZM10.8863 13.668C12.2854 13.668 13.1555 12.7415 13.1555 11.583C13.1292 10.3982 12.2854 9.49805 10.9126 9.49805C9.53974 9.49805 8.64331 10.3995 8.64331 11.583C8.64331 12.7666 9.51341 13.668 10.8599 13.668H10.8863Z" fill="#98A2B3"/>
<path fill-rule="evenodd" clip-rule="evenodd" d="M15.1113 27.3841H19.1221V20.644C19.1221 20.2829 19.1484 19.9231 19.2537 19.6648C19.5433 18.9439 20.204 18.1979 21.3123 18.1979C22.7642 18.1979 23.3447 19.305 23.3447 20.9273V27.3841H27.3554V20.4647C27.3554 16.7574 25.377 15.0322 22.7379 15.0322C20.5739 15.0322 19.6236 16.2421 19.0957 17.0658H19.1221V15.3156H15.1113C15.164 16.4477 15.1113 27.3841 15.1113 27.3841Z" fill="#98A2B3"/>
<path d="M28.4713 1.94541C31.7924 1.94541 34.4943 4.64723 34.4943 7.9684V28.9122C34.4943 32.2334 31.7924 34.9352 28.4713 34.9352H7.52748C4.20631 34.9352 1.50449 32.2334 1.50449 28.9122V7.9684C1.50449 4.64723 4.20631 1.94541 7.52748 1.94541H28.4713ZM28.4713 0.440918H7.52748C3.37006 0.440918 0 3.81098 0 7.9684V28.9122C0 33.0696 3.37006 36.4397 7.52748 36.4397H28.4713C32.6287 36.4397 35.9987 33.0696 35.9987 28.9122V7.9684C35.9987 3.81098 32.6287 0.440918 28.4713 0.440918Z" fill="#98A2B3"/>
</g>
<defs>
<clipPath id="clip0_386_2512">
<rect width="36" height="36" fill="white" transform="translate(0 0.440918)"/>
</clipPath>
</defs>
</svg>
