<svg width="36" height="37" viewBox="0 0 36 37" fill="none" xmlns="http://www.w3.org/2000/svg">
<g clip-path="url(#clip0_386_2519)">
<path d="M28.4713 1.94541C31.7924 1.94541 34.4943 4.64723 34.4943 7.9684V28.9122C34.4943 32.2334 31.7924 34.9352 28.4713 34.9352H7.52748C4.20631 34.9352 1.50449 32.2334 1.50449 28.9122V7.9684C1.50449 4.64723 4.20631 1.94541 7.52748 1.94541H28.4713ZM28.4713 0.440918H7.52748C3.37006 0.440918 0 3.81098 0 7.9684V28.9122C0 33.0696 3.37006 36.4397 7.52748 36.4397H28.4713C32.6287 36.4397 35.9987 33.0696 35.9987 28.9122V7.9684C35.9987 3.81098 32.6287 0.440918 28.4713 0.440918Z" fill="#98A2B3"/>
<path d="M19.9008 17.0189L27.3405 8.37061H25.5777L19.1185 15.8793L13.9593 8.37061H8.00903L15.8111 19.7258L8.00903 28.7941H9.7718L16.5934 20.8642L22.0422 28.7941H27.9925L19.9008 17.0189ZM17.4861 19.8248L16.695 18.6939L10.4049 9.69707H13.113L18.1894 16.9575L18.9805 18.0884L25.579 27.5266H22.8709L17.4861 19.8248Z" fill="#98A2B3"/>
</g>
<defs>
<clipPath id="clip0_386_2519">
<rect width="36" height="36" fill="white" transform="translate(0 0.440918)"/>
</clipPath>
</defs>
</svg>
