<svg width="36" height="37" viewBox="0 0 36 37" fill="none" xmlns="http://www.w3.org/2000/svg">
<g clip-path="url(#clip0_386_2525)">
<path d="M28.4713 1.94541C31.7924 1.94541 34.4943 4.64723 34.4943 7.9684V28.9122C34.4943 32.2334 31.7924 34.9352 28.4713 34.9352H7.52748C4.20631 34.9352 1.50449 32.2334 1.50449 28.9122V7.9684C1.50449 4.64723 4.20631 1.94541 7.52748 1.94541H28.4713ZM28.4713 0.440918H7.52748C3.37006 0.440918 0 3.81098 0 7.9684V28.9122C0 33.0696 3.37006 36.4397 7.52748 36.4397H28.4713C32.6287 36.4397 35.9987 33.0696 35.9987 28.9122V7.9684C35.9987 3.81098 32.6287 0.440918 28.4713 0.440918Z" fill="#98A2B3"/>
<path d="M28.2293 13.2682C27.9836 12.3429 27.2602 11.6157 26.3412 11.3688C24.6762 10.9199 17.9988 10.9199 17.9988 10.9199C17.9988 10.9199 11.3213 10.9199 9.65637 11.3688C8.73738 11.6157 8.01397 12.3442 7.76823 13.2682C7.3219 14.9444 7.3219 18.4411 7.3219 18.4411C7.3219 18.4411 7.3219 21.9378 7.76823 23.6141C8.01397 24.5393 8.73738 25.2665 9.65637 25.5135C11.3213 25.9623 17.9988 25.9623 17.9988 25.9623C17.9988 25.9623 24.6762 25.9623 26.3412 25.5135C27.2602 25.2665 27.9836 24.5381 28.2293 23.6141C28.6757 21.9378 28.6757 18.4411 28.6757 18.4411C28.6757 18.4411 28.6757 14.9444 28.2293 13.2682ZM15.816 21.6156V15.2667L21.3964 18.4411L15.816 21.6156Z" fill="#98A2B3"/>
</g>
<defs>
<clipPath id="clip0_386_2525">
<rect width="36" height="36" fill="white" transform="translate(0 0.440918)"/>
</clipPath>
</defs>
</svg>
