<?xml version="1.0" encoding="UTF-8"?>
<svg id="Layer_1" xmlns="http://www.w3.org/2000/svg" viewBox="0 0 263.26 233.6">
    <path
        style="fill:white;"
        d="M140.81,165.64c-2.65,0-5.22-1.11-7.03-3.05-3.63-3.91-3.42-10.03.45-13.65l23.98-22.42H9.64c-5.32,0-9.64-4.32-9.64-9.64s4.32-9.64,9.64-9.64l148.54.03-23.99-22.45c-3.88-3.63-4.09-9.75-.45-13.65,1.84-1.97,4.34-3.05,7.04-3.05,2.46,0,4.8.93,6.61,2.6l41.79,39.15.2.2c.12.09.2.19.25.25l.12.12v.02s.09.1.14.17c.08.07.18.18.27.33l.06.07h.15l.35.63.03.03s.15.3.18.35l.09.15c.79,1.42,1.21,3.04,1.21,4.68s-.41,3.2-1.21,4.67l-.06.09c-.06.12-.13.28-.25.43l-.11.15s-.05.08-.08.12c-.05.07-.1.14-.14.19-.05.06-.09.14-.16.21-.04.06-.07.1-.12.15l-.02.06-.17.17c-.1.16-.21.27-.3.36l-.38.38-41.81,39.18c-1.8,1.68-4.14,2.61-6.59,2.61h0Z" />
    <path
        style="fill:white;"
        d="M146.44,233.6c-23.57,0-46.31-7.01-65.75-20.27-18.97-12.96-33.59-30.95-42.27-52.06-.98-2.38-.98-5.01,0-7.38.99-2.37,2.85-4.22,5.24-5.21,1.18-.49,2.41-.74,3.67-.74,3.92,0,7.43,2.35,8.93,5.98,15.12,36.7,50.52,60.4,90.2,60.4,53.77,0,97.52-43.74,97.52-97.52S200.24,19.29,146.47,19.29c-39.67,0-75.08,23.71-90.19,60.4-1.5,3.63-5.01,5.98-8.93,5.98-1.26,0-2.5-.25-3.68-.74-2.38-.98-4.24-2.83-5.24-5.21-.99-2.38-.99-5.01,0-7.39,8.7-21.15,23.32-39.14,42.27-52.06C100.07,7.01,122.8,0,146.44,0c15.82,0,31.12,3.09,45.48,9.19,13.9,5.9,26.39,14.32,37.11,25.04,10.68,10.63,19.1,23.11,25.04,37.11l.11.28c5.99,14.34,9.04,29.53,9.07,45.15,0,15.83-3.09,31.13-9.19,45.48-5.9,13.9-14.33,26.39-25.04,37.11-10.63,10.68-23.11,19.1-37.11,25.05-14.43,6.1-29.73,9.19-45.48,9.19h0Z" />
</svg>