<?xml version="1.0" encoding="UTF-8"?>
<svg id="Layer_1" xmlns="http://www.w3.org/2000/svg" viewBox="0 0 263.26 263.25">
    <path
    style="fill:white;"
        d="M135.58,188.04c-7.33-7.33-19.27-7.33-26.61,0l-5.55,5.55-33.75-33.75,5.55-5.55c7.33-7.33,7.33-19.27,0-26.61l-24.35-24.35c-7.33-7.33-19.27-7.33-26.61,0l-10.53,10.53C4.89,122.7,0,134.54,0,147.14v6.49c0,12.5,4.89,24.35,13.73,33.28l62.61,62.61c8.84,8.84,20.68,13.73,33.28,13.73h6.49c12.6,0,24.35-4.89,33.28-13.73l10.53-10.53c7.33-7.33,7.33-19.27,0-26.61l-24.34-24.34ZM136.05,236.18c-5.36,5.36-12.41,8.27-19.93,8.27h-6.49c-7.52,0-14.67-2.91-19.93-8.27l-62.61-62.61c-5.27-5.27-8.27-12.5-8.27-19.93v-6.49c0-7.43,3.01-14.67,8.27-19.93l10.53-10.53,24.35,24.35-12.13,12.13c-3.67,3.67-3.67,9.59,0,13.26l47.01,47.01c3.67,3.67,9.59,3.67,13.26,0l12.13-12.13,24.35,24.35-10.53,10.53Z" />
    <path
    style="fill:white;"
        d="M244.55,0H18.9C8.56,0,.09,8.46.09,18.81v64.03c0,5.17,4.23,9.4,9.4,9.4s9.4-4.23,9.4-9.4v-31.41l63.56,40.9-4.42,4.42c-3.67,3.67-3.67,9.59,0,13.26,1.88,1.88,4.23,2.73,6.68,2.73s4.8-.94,6.68-2.73l7.33-7.33,27.93,17.96c1.6,1.03,3.29,1.5,5.08,1.5s3.57-.47,5.08-1.5l27.93-17.96,66.47,66.47h-71.36c-5.17,0-9.4,4.23-9.4,9.4s4.23,9.4,9.4,9.4h84.62c10.34,0,18.8-8.46,18.8-18.8V18.8c0-10.34-8.46-18.8-18.8-18.8h.09ZM131.72,101.64L18.9,29.05v-10.25h225.65v10.25l-112.82,72.58ZM244.55,51.43v104.46l-63.56-63.56,63.56-40.9Z" />
</svg>