<?xml version="1.0" encoding="UTF-8"?>
<svg id="Layer_1" xmlns="http://www.w3.org/2000/svg" viewBox="0 0 285.89 281.82">
    <path
    style="fill:white;"
        d="M270.02,281.82c-4.1,0-8.12-1.67-11.04-4.59l-74.09-74.12-6.01,4.19c-19.14,13.34-41.58,20.4-64.87,20.4h-.14C51.07,227.7,0,176.62,0,113.85S51.06,0,113.82,0c62.78,0,113.85,51.07,113.85,113.85.03,21.4-5.98,42.3-17.38,60.44l-3.71,5.91,74.69,74.69c6.16,6.16,6.17,16.19.02,22.35-2.91,2.91-6.98,4.58-11.15,4.58h-.12ZM113.85,22.22c-50.53,0-91.63,41.11-91.63,91.63s41.11,91.63,91.63,91.63,91.63-41.11,91.63-91.63S164.37,22.22,113.85,22.22Z" />
</svg>