<?xml version="1.0" encoding="UTF-8"?>
<svg id="Layer_1" xmlns="http://www.w3.org/2000/svg" viewBox="0 0 287.14 229.05">
    <path
        style="fill:white;"
        d="M252.11.02l-201.08-.02h-16.02C15.69,0,0,15.71,0,35.03v119.4c0,19.31,15.71,35.01,35.01,35.01l27.08.34c.26,6.45-.14,12.96-1.17,19.27-3.01,14.8,15.57,25.75,27.43,16.77,13.69-9.64,25.06-21.75,34.03-36.37h129.73c19.31.01,35.02-15.7,35.02-34.99V35.04C287.14,15.73,271.43.02,252.11.02ZM270.05,154.43c0,10.06-7.88,17.94-17.94,17.94h-54.36c-.12,0-75.37-.02-75.37-.02-5.91,0-11.58,3.27-14.8,8.52-7.51,12.25-17.3,22.68-29.8,30.94,1.22-7.48,1.68-15.12,1.38-22.53-.16-9.34-7.94-16.93-17.33-16.93h-26.82c-9.9,0-17.94-8.04-17.94-17.94V35.01c0-9.9,8.04-17.94,17.94-17.94l217.1.02c9.9,0,17.94,8.04,17.94,17.94v119.4Z" />
    <path
        style="fill:white;"
        d="M27.08,65.47h32.87v11.81h-18.42v9.48h17.25v11.35h-17.25v11.03h19.12v11.81H27.08v-55.48Z" />
    <path
        style="fill:white;"
        d="M73.79,107.89c0,1.63.31,3.19,1.01,4.12.7.93,1.71,1.48,2.95,1.48,2.18,0,4.04-1.32,4.04-3.57,0-7.46-20.28-3.03-20.28-18.96,0-7.38,5.36-13.13,16.71-13.13,10.49,0,15.77,4.43,15.77,13.21h-12.12c0-3.57-1.4-4.66-3.73-4.66-2.1,0-3.57,1.24-3.57,3.26,0,6.92,20.28,2.25,20.28,18.34,0,8.16-6.29,14.07-16.86,14.07-11.73,0-16.47-4.97-16.47-14.14h12.28Z" />
    <path
        style="fill:white;"
        d="M96.87,78.91h13.52v5.75h.16c1.71-4.66,4.97-6.84,9.56-6.84,9.4,0,12.59,7.46,12.59,23s-5.13,21.21-12.9,21.21c-3.96,0-7.38-1.55-8.78-5.83h-.16v18.42h-13.99v-55.72ZM114.74,111.62c3.26,0,3.96-2.64,3.96-11.73s-.7-11.66-3.96-11.66-3.89,2.64-3.89,11.66.7,11.73,3.89,11.73Z" />
    <path
        style="fill:white;"
        d="M155.15,120.95c-.47-1.48-.62-3.03-.85-4.74h-.16c-1.55,3.73-5.28,5.83-9.48,5.83-8.39,0-11.66-5.13-11.66-12.36,0-7.77,2.72-11.42,11.66-13.52l5.52-1.32c3.03-.7,4.12-2.02,4.12-4.58s-1.17-3.89-3.57-3.89c-2.64,0-3.89,1.17-3.96,5.59h-12.12c0-12.04,9.71-14.14,16.09-14.14,9.79,0,16.63,2.56,16.63,13.52v20.52c0,3.89.16,6.92,1.32,9.09h-13.52ZM154.29,105.72v-5.05h-.16c-.78,1.09-2.72,1.01-4.74,1.94-2.18,1.01-2.88,2.64-2.88,5.44s1.32,4.58,3.42,4.58c3.11,0,4.35-2.33,4.35-6.92Z" />
    <path
        style="fill:white;"
        d="M171.23,78.91h13.52v5.13h.16c1.79-4.12,5.36-6.22,10.18-6.22,6.14,0,10.96,2.41,10.96,11.42v31.71h-13.99v-27.74c0-3.5-.93-4.97-3.42-4.97s-3.42,1.48-3.42,4.97v27.74h-13.99v-42.04ZM201.46,63.68c-.78,7.69-4.04,10.88-7.77,10.88-4.2,0-7.15-2.33-9.4-2.33-1.09,0-1.79,1.01-1.79,2.33h-6.68c.93-7.07,3.19-10.88,7.62-10.88,1.63,0,3.42.54,5.05,1.17,1.63.54,3.11,1.17,4.2,1.17s1.86-.54,2.1-2.33h6.68Z" />
    <path
        style="fill:white;"
        d="M225.94,122.04c-16.4,0-17.87-10.02-17.87-22.15,0-11.03,2.1-22.07,17.87-22.07s17.87,10.02,17.87,22.15c0,11.03-2.1,22.07-17.87,22.07ZM225.94,113.02c3.19,0,3.89-2.49,3.89-13.06s-.7-13.13-3.89-13.13-3.89,2.49-3.89,13.13.78,13.06,3.89,13.06Z" />
    <path
        style="fill:white;"
        d="M246.07,65.47h13.99v55.48h-13.99v-55.48Z" />
</svg>