<svg width="175" height="60" viewBox="0 0 175 60" fill="none" xmlns="http://www.w3.org/2000/svg">
<g clip-path="url(#clip0_4_3)">
<path d="M0 7.39448C0 10.1214 1.31701 12.0455 3.01208 13.2041C4.56175 14.2386 6.38562 14.6193 8.29673 14.6193C9.65529 14.6193 11.1842 14.3007 11.6495 14.1352C11.8822 14.0524 12.1356 13.9655 12.3932 13.9241C12.7131 13.5228 13.2615 12.1283 13.411 11.0276C13.328 10.8786 13.008 10.8372 12.8585 10.9448C12.3724 12.1903 11.1593 13.9655 8.42553 13.9655C4.94397 13.9655 2.123 11.5159 2.123 7.07586C2.123 2.63586 4.88165 0.653793 8.12639 0.653793C11.205 0.653793 12.1564 2.30069 12.4763 3.74069C12.6258 3.86897 12.9416 3.84828 13.0496 3.69931C12.8793 2.40828 12.7754 1.08 12.7546 0.591724C12.5635 0.612414 12.4139 0.571034 12.1605 0.508966C11.1634 0.235862 9.55142 0 8.40475 0C6.19866 0 4.22523 0.591724 2.67556 1.79586C1.05942 3.04138 0 5.05241 0 7.39448Z" fill="#A39159"/>
<path d="M24.7613 13.9697C20.5818 13.9697 19.0529 9.91035 19.0529 6.78621C19.0529 2.16 21.9154 0.657931 24.1257 0.657931C28.1764 0.657931 29.7261 4.41931 29.7261 7.90759C29.7261 12.0703 27.3081 13.9738 24.7613 13.9738V13.9697ZM24.4871 14.6234C28.5836 14.6234 31.8491 11.5159 31.8491 7.24966C31.8491 3.52966 29.3896 0 24.4871 0C20.1165 0 16.9341 3.23172 16.9341 7.46069C16.9341 11.2634 19.7758 14.6234 24.4871 14.6234Z" fill="#A39159"/>
<path d="M39.4063 1.6055C39.4063 1.01378 39.4686 0.93102 40.7856 0.93102C43.1413 0.93102 44.1799 2.51585 44.1799 4.18343C44.1799 5.6193 43.6938 6.35999 43.1205 6.80275C42.5056 7.26619 41.6996 7.35309 40.9352 7.35309C39.855 7.35309 39.5351 7.31171 39.4728 7.2455C39.4105 7.16274 39.4104 6.92688 39.4104 6.54619V1.6055H39.4063ZM37.6655 11.1145C37.6655 13.3324 37.624 13.6096 36.3942 13.7545L35.8624 13.8165C35.7336 13.9655 35.7793 14.28 35.904 14.3462C36.9011 14.3048 37.6655 14.2841 38.5546 14.2841C39.4437 14.2841 40.125 14.3048 41.0806 14.3462C41.2094 14.2841 41.2509 13.9241 41.1221 13.8165L40.6776 13.7545C39.4478 13.5848 39.4063 13.3324 39.4063 11.1145V8.45378C39.4063 8.01102 39.4478 7.99033 40.4034 7.99033C41.2509 7.99033 41.5916 8.20137 41.9115 8.66481C42.5679 9.61654 43.4404 11.0731 43.9888 11.8552C45.4969 13.9903 46.5771 14.5158 48.3802 14.5158C48.7832 14.5158 49.1239 14.4745 49.315 14.4083C49.423 14.3255 49.3981 14.1558 49.2942 14.1103C48.7209 14.069 48.1891 13.8372 47.8318 13.5186C46.3902 12.3145 45.2643 10.6221 43.565 7.8993C43.457 7.72964 43.3532 7.51861 43.457 7.39033C44.5165 6.96826 46.1077 5.86757 46.1077 3.86068C46.1077 2.3793 45.364 1.43171 44.3461 0.902055C43.3698 0.3724 42.1192 0.268951 40.8022 0.268951C38.7249 0.268951 37.2584 0.33102 36.0702 0.438607C35.8998 0.521365 35.8998 0.860676 36.0494 0.968262L36.7266 1.05102C37.5949 1.15861 37.6614 1.51447 37.6614 3.5255V11.1103L37.6655 11.1145Z" fill="#A39159"/>
<path d="M56.5274 3.82346C56.7601 3.19036 56.972 2.68139 57.0385 2.57794H57.08C57.2088 2.83036 57.3999 3.40139 57.5661 3.91036L58.7128 7.35312C58.9039 7.92415 58.8623 8.00691 58.2474 8.00691H55.6384C55.0442 8.00691 55.0235 7.98622 55.1938 7.49794L56.5316 3.81932L56.5274 3.82346ZM60.3247 12.2566C60.4951 12.7655 60.5989 13.1462 60.5989 13.3779C60.5989 13.589 60.304 13.7173 59.8553 13.7586L59.2404 13.8207C59.0908 13.9283 59.1116 14.2635 59.2819 14.3504C59.8968 14.3297 60.7028 14.2883 61.7207 14.2883C62.6762 14.2883 63.4199 14.309 64.2882 14.3504C64.3963 14.2676 64.4378 13.9283 64.2882 13.8207L63.7149 13.7586C62.8009 13.651 62.5267 13.3366 61.9118 11.52L59.0036 3.02484C58.6837 2.09381 58.3472 1.12139 58.0688 0.194495C58.0273 0.0455297 57.8777 0.00415039 57.7489 0.00415039C57.5162 0.277254 57.1548 0.657943 56.6438 0.806909C56.7061 1.14622 56.5815 1.5476 56.2823 2.30898L54.1178 8.01518C53.2245 10.3821 52.6304 11.7559 52.2524 12.7283C51.9532 13.4897 51.4879 13.7214 50.9811 13.7628L50.2789 13.8248C50.1501 13.9324 50.1958 14.2676 50.3205 14.3545C50.8938 14.3338 51.6583 14.2924 52.3562 14.2924C53.3533 14.3131 54.0098 14.3131 54.5623 14.3545C54.7534 14.2717 54.7534 13.9324 54.6039 13.8248L53.9017 13.7628C53.3907 13.7214 53.2869 13.5931 53.2869 13.3407C53.2869 13.109 53.4364 12.5379 53.7522 11.5862L54.4958 9.36829C54.6454 8.92553 54.77 8.85932 55.3018 8.85932H58.505C59.1407 8.85932 59.2279 8.92139 59.3733 9.38898L60.3081 12.2648L60.3247 12.2566Z" fill="#A39159"/>
<path d="M69.2406 11.1145C69.2406 13.3324 69.199 13.6304 67.9693 13.7545L67.3336 13.8166C67.2048 13.9448 67.2505 14.28 67.3752 14.3462C68.5634 14.3048 69.2406 14.2842 70.1338 14.2842H72.0865C74.2718 14.2842 76.2868 14.3048 77.3711 14.3462C77.6661 13.7752 78.2602 11.6193 78.2602 11.3876C78.2602 11.2386 77.8572 11.1559 77.7284 11.2593C77.3046 12.3352 76.7521 13.0966 76.3283 13.3531C75.9876 13.5435 75.5431 13.6262 73.74 13.6262C72.0657 13.6262 71.6627 13.3738 71.4259 13.1421C71.0437 12.7407 70.9814 12.1904 70.9814 10.8579V3.50898C70.9814 1.29105 71.0229 0.951735 72.2776 0.848287L72.7886 0.806907C72.9174 0.724149 72.8717 0.343459 72.7471 0.277252C71.6876 0.318632 70.9647 0.339321 70.138 0.339321C69.3112 0.339321 68.5675 0.318632 67.3793 0.277252C67.2505 0.339321 67.209 0.720011 67.3378 0.806907L67.8696 0.848287C69.2073 0.955873 69.2489 1.29105 69.2489 3.50898V11.1186L69.2406 11.1145Z" fill="#A39159"/>
<path d="M101.979 10.9448C101.979 9.86897 102 9.27725 102.893 9.16966L103.233 9.12828C103.383 9.00001 103.362 8.68552 103.213 8.59863C102.511 8.64001 101.792 8.6607 100.965 8.6607C99.7145 8.6607 98.5471 8.64001 97.9322 8.59863C97.7826 8.6607 97.7618 9.04138 97.9322 9.12828L98.867 9.23587C100.184 9.38483 100.246 9.50897 100.246 11.2841V12.1283C100.246 12.8028 100.138 13.1835 100.034 13.3324C99.8017 13.6924 99.0165 13.9655 97.6995 13.9655C93.4327 13.9655 91.3347 10.7752 91.3347 6.71587C91.3347 3.54621 93.1378 0.628971 97.255 0.628971C99.4195 0.628971 101.011 1.34897 101.605 3.62897C101.734 3.75725 102.116 3.73656 102.178 3.5669C101.987 2.3007 101.858 1.20001 101.858 0.500695C101.605 0.542075 100.944 0.393109 100.541 0.31035C100.18 0.227592 99.0581 -0.00827026 97.8449 -0.00827026C94.6417 -0.00827026 92.5395 0.984833 91.1186 2.46621C89.8016 3.8607 89.2075 5.67725 89.2075 7.47311C89.2075 9.26897 89.8847 11.0028 91.1602 12.269C92.7929 13.9159 95.107 14.6152 97.633 14.6152C98.7797 14.6152 100.304 14.3628 101.43 14.0648C101.833 13.9572 102.216 13.8745 102.469 13.8745C102.552 13.8124 102.552 13.6841 102.49 13.6221C102.108 13.4731 101.979 12.9683 101.979 12.12V10.9366V10.9448Z" fill="#A39159"/>
<path d="M111.551 3.82346C111.784 3.19036 111.995 2.68139 112.062 2.57794H112.103C112.232 2.83036 112.423 3.40139 112.59 3.91036L113.736 7.35312C113.927 7.92415 113.886 8.00691 113.271 8.00691H110.662C110.068 8.00691 110.047 7.98622 110.217 7.49794L111.555 3.81932L111.551 3.82346ZM115.348 12.2566C115.519 12.7655 115.622 13.1462 115.622 13.3779C115.622 13.589 115.327 13.7173 114.879 13.7586L114.264 13.8207C114.114 13.9283 114.135 14.2635 114.305 14.3504C114.92 14.3297 115.726 14.2883 116.744 14.2883C117.7 14.2883 118.443 14.309 119.312 14.3504C119.42 14.2676 119.461 13.9283 119.312 13.8207L118.738 13.7586C117.824 13.651 117.55 13.3366 116.935 11.52L114.027 3.02484C113.707 2.09381 113.371 1.12139 113.092 0.194495C113.051 0.0455297 112.901 0.00415039 112.772 0.00415039C112.54 0.277254 112.178 0.657943 111.667 0.806909C111.73 1.14622 111.605 1.5476 111.306 2.30898L109.141 8.01518C108.252 10.3821 107.658 11.7559 107.276 12.7283C106.981 13.4897 106.511 13.7214 106.004 13.7628L105.302 13.8248C105.174 13.9324 105.219 14.2676 105.344 14.3545C105.917 14.3338 106.682 14.2924 107.38 14.2924C108.377 14.3131 109.033 14.3131 109.586 14.3545C109.777 14.2717 109.777 13.9324 109.627 13.8248L108.925 13.7628C108.414 13.7214 108.31 13.5931 108.31 13.3407C108.31 13.109 108.46 12.5379 108.776 11.5862L109.519 9.36829C109.669 8.92553 109.793 8.85932 110.325 8.85932H113.528C114.164 8.85932 114.251 8.92139 114.397 9.38898L115.332 12.2648L115.348 12.2566Z" fill="#A39159"/>
<path d="M126.001 1.6055C126.001 1.22481 126.084 1.12137 126.296 1.05516C126.487 0.9724 126.807 0.926883 127.272 0.926883C128.884 0.926883 130.434 1.70895 130.434 3.77792C130.434 5.84688 129.266 6.39723 127.102 6.48412C126.022 6.5255 125.997 6.48412 125.997 5.8924V1.6055H126.001ZM126.001 7.67171C126.001 7.24964 126.084 7.12137 127.23 7.12137C130.604 7.12137 131.452 9.06619 131.452 10.7338C131.452 12.8483 130.01 13.6924 128.12 13.6924C127.484 13.6924 126.848 13.5848 126.445 13.1007C126.042 12.6372 126.001 11.5572 126.001 10.7958V7.66757V7.67171ZM124.26 11.1145C124.26 13.3324 124.218 13.589 123.093 13.7545L122.71 13.8165C122.581 13.9448 122.627 14.28 122.752 14.3462C123.537 14.3255 124.26 14.2841 125.191 14.2841C126.121 14.2841 127.122 14.3462 127.737 14.3462C131.555 14.3462 133.379 12.6993 133.379 10.2455C133.379 7.98619 131.68 6.92688 130.538 6.71585C130.305 6.67447 130.135 6.60826 130.135 6.39723C131.406 5.8055 132.299 5.02343 132.299 3.50068C132.299 2.14757 131.597 1.30343 130.687 0.860676C129.732 0.376538 128.46 0.268951 127.122 0.268951C125.149 0.268951 123.707 0.33102 122.561 0.438607C122.39 0.521365 122.37 0.839986 122.54 0.968262L123.217 1.03033C124.173 1.13792 124.256 1.51447 124.256 3.07861V11.1103L124.26 11.1145Z" fill="#A39159"/>
<path d="M139.644 11.1145C139.644 13.3324 139.603 13.6304 138.373 13.7545L137.737 13.8166C137.609 13.9448 137.654 14.28 137.779 14.3462C138.967 14.3048 139.644 14.2842 140.538 14.2842H142.49C144.676 14.2842 146.691 14.3048 147.775 14.3462C148.07 13.7752 148.664 11.6193 148.664 11.3876C148.664 11.2386 148.261 11.1559 148.132 11.2593C147.708 12.3352 147.156 13.0966 146.732 13.3531C146.391 13.5435 145.947 13.6262 144.144 13.6262C142.47 13.6262 142.067 13.3738 141.83 13.1421C141.447 12.7407 141.385 12.1904 141.385 10.8579V3.50898C141.385 1.29105 141.427 0.951735 142.681 0.848287L143.192 0.806907C143.321 0.724149 143.275 0.343459 143.151 0.277252C142.091 0.318632 141.369 0.339321 140.542 0.339321C139.715 0.339321 138.971 0.318632 137.783 0.277252C137.654 0.339321 137.613 0.720011 137.742 0.806907L138.273 0.848287C139.611 0.955873 139.653 1.29105 139.653 3.50898V11.1186L139.644 11.1145Z" fill="#A39159"/>
<path d="M153.928 11.1145C153.928 13.3324 153.82 13.651 152.611 13.7545L151.909 13.8166C151.78 13.9448 151.826 14.28 151.95 14.3462C153.201 14.3048 153.924 14.2842 154.838 14.2842H156.749C158.639 14.2842 160.525 14.3048 162.437 14.3462C162.711 13.7752 163.243 12.149 163.392 11.4083C163.309 11.2179 163.01 11.1559 162.86 11.2593C162.308 12.36 161.734 13.0966 161.352 13.3076C160.887 13.5393 160.272 13.6262 158.635 13.6262C156.77 13.6262 156.321 13.3945 156.068 13.1421C155.727 12.7821 155.665 12.0662 155.665 10.9448V7.96553C155.665 7.41518 155.727 7.39449 156.367 7.39449H157.596C158.423 7.39449 158.934 7.41518 159.229 7.50208C159.653 7.60967 159.803 7.92415 159.886 8.30484L160.077 9.12829C160.185 9.25656 160.542 9.25656 160.629 9.1076C160.629 8.64415 160.546 7.84139 160.546 7.08001C160.546 6.27725 160.629 5.4538 160.629 4.94484C160.546 4.79587 160.185 4.79587 160.077 4.92415L159.906 5.78898C159.798 6.31863 159.653 6.44277 159.395 6.52967C159.138 6.61656 158.481 6.65794 157.592 6.65794H156.363C155.727 6.65794 155.66 6.65794 155.66 6.06622V1.83725C155.66 1.03449 155.66 0.993114 156.296 0.993114H157.825C158.76 0.993114 159.437 1.0138 159.881 1.12139C160.987 1.39449 161.178 2.13518 161.493 3.12829C161.601 3.25656 161.938 3.21105 162.025 3.08691C161.942 2.15587 161.813 0.637252 161.685 0.277252C161.431 0.339321 160.176 0.339321 158.822 0.339321H154.834C153.965 0.339321 153.242 0.318632 152.328 0.277252C152.2 0.339321 152.158 0.720011 152.287 0.806907L152.628 0.848287C153.878 0.997252 153.924 1.31173 153.924 3.50898V11.1186L153.928 11.1145Z" fill="#A39159"/>
<path d="M174.996 10.7131C174.996 8.70621 173.679 7.48138 172.345 6.65379L170.646 5.59862C169.861 5.08966 168.843 4.22483 168.843 3C168.843 2.02759 169.287 0.653793 171.369 0.653793C173.45 0.653793 173.978 2.02759 174.256 3.04138C174.364 3.16966 174.701 3.10345 174.788 2.97931C174.788 2.09379 174.597 0.910345 174.406 0.401379C174.236 0.401379 173.941 0.33931 173.662 0.273103C173.11 0.103448 172.345 0 171.689 0C168.93 0 167.36 1.62621 167.36 3.6331C167.36 5.3669 168.589 6.57103 169.653 7.26621L171.668 8.57793C173.218 9.57103 173.409 10.6055 173.409 11.5366C173.409 12.8028 172.54 13.9655 170.758 13.9655C168.299 13.9655 167.426 11.8966 167.11 10.8166C167.027 10.6883 166.707 10.7338 166.599 10.8786C166.641 11.8717 166.919 13.3738 167.173 13.8372C167.576 14.069 168.702 14.6193 170.484 14.6193C173.243 14.6193 175.004 13.0345 175.004 10.709L174.996 10.7131Z" fill="#A39159"/>
<path d="M10.9183 57.0497C10.3906 57.6041 9.47664 57.8814 8.17209 57.8814H7.7774V59.1724H23.1993V57.8814H22.7838C21.4211 57.8814 20.4614 57.6083 19.9047 57.0621C19.348 56.5159 19.0696 55.5766 19.0696 54.2483V30.2441H19.3978C21.9155 30.2441 23.8723 30.8814 25.2641 32.16C26.6559 33.4386 27.491 35.3586 27.7693 37.9242H29.0863V28.3821H1.69092V37.9242H3.16165C3.44 35.3586 4.27508 33.4345 5.66687 32.16C7.05866 30.8855 9.01548 30.2441 11.5332 30.2441H11.7077V54.2483C11.7077 55.5766 11.4459 56.5076 10.9183 57.0497Z" fill="#ECEBF3"/>
<path d="M49.5976 32.8014C49.5976 31.7379 49.7721 31.0345 50.1252 30.6993C50.4783 30.3642 51.1805 30.211 52.2357 30.24C53.9641 30.2979 55.2727 30.8028 56.1701 31.7504C57.1091 32.7724 57.5744 34.32 57.5744 36.389C57.5744 38.8552 57.0717 40.6221 56.0704 41.6938C55.065 42.7655 53.4073 43.3035 51.0932 43.3035H49.5976V32.8014ZM41.4047 57.0497C40.848 57.6041 39.8966 57.8814 38.5505 57.8814H38.135V59.1724H53.7355V57.8814H53.3201C51.9574 57.8814 50.9977 57.6083 50.441 57.0621C49.8842 56.5159 49.6059 55.5766 49.6059 54.2483V45.0373H50.6404L60.5117 59.1724H69.818V57.8814H69.5978C68.85 57.8814 68.1479 57.6083 67.4873 57.0621C66.8267 56.5159 66.0581 55.5766 65.1815 54.2483L58.6338 44.2262C59.8802 43.9035 60.9646 43.4731 61.8869 42.9352C64.3173 41.52 65.5346 39.4469 65.5346 36.72C65.5346 33.9931 64.5001 31.7752 62.427 30.4179C60.3538 29.0607 57.1506 28.3821 52.8132 28.3821H38.1143V29.6731H38.5297C39.8924 29.6731 40.8521 29.9462 41.4089 30.4924C41.9656 31.0386 42.2439 31.9779 42.2439 33.3062V54.2483C42.2439 55.5766 41.9656 56.5076 41.4089 57.0497H41.4047Z" fill="#ECEBF3"/>
<path d="M103.541 34.3986C103.541 32.7641 103.803 31.5931 104.33 30.8855C104.858 30.1779 105.759 29.7724 107.031 29.6731H107.425V28.3821H97.5375V29.6731H97.953C99.3157 29.7766 100.275 30.1821 100.832 30.8855C101.389 31.5931 101.667 32.7641 101.667 34.3986V47.5697C101.667 50.8676 100.994 53.3379 99.6439 54.989C98.2978 56.6359 96.2745 57.4635 93.5782 57.4635C91.4261 57.4635 89.785 56.7931 88.655 55.4483C87.5249 54.1076 86.964 52.1462 86.964 49.5641V33.3062C86.964 31.9779 87.2424 31.0428 87.7991 30.4924C88.3558 29.9462 89.3072 29.6731 90.6533 29.6731H91.0688V28.3821H75.4683V29.6731H75.8837C77.2464 29.6731 78.2061 29.9462 78.7629 30.4924C79.3196 31.0386 79.5979 31.9779 79.5979 33.3062V49.0386C79.5979 52.5973 80.6033 55.2786 82.6183 57.0786C84.6333 58.8786 87.6163 59.7807 91.5715 59.7807C95.5267 59.7807 98.5055 58.7793 100.512 56.7724C102.519 54.7655 103.52 51.7945 103.52 47.8552V34.3986H103.541Z" fill="#ECEBF3"/>
<path d="M135.336 37.9241V27.7697H134.106L133.998 28.0303C133.749 28.6303 133.367 29.011 132.856 29.1807C132.345 29.3503 131.734 29.2883 131.032 28.9945C129.071 28.1917 127.181 27.7821 125.365 27.7697C122.378 27.7697 119.968 28.6179 118.136 30.3186C116.304 32.0193 115.39 34.2621 115.39 37.0469C115.39 39.1779 116.146 41.0731 117.654 42.7365C119.162 44.4124 121.41 45.8441 124.397 47.0234C126.798 47.971 128.547 48.9352 129.648 49.9117C130.745 50.9048 131.298 51.989 131.298 53.1724C131.298 54.6165 130.787 55.7917 129.769 56.6938C128.751 57.6 127.43 58.051 125.801 58.051C123.383 58.051 121.269 57.1365 119.453 55.3034C117.637 53.4745 116.553 51.1697 116.2 48.4014H114.97V60H116.2L116.266 59.76C116.412 59.2055 116.744 58.8 117.255 58.5476C117.766 58.291 118.29 58.2745 118.813 58.4938C120.924 59.3545 123.25 59.7848 125.801 59.7848C129.054 59.7848 131.672 58.9076 133.653 57.149C135.639 55.3903 136.632 53.0772 136.632 50.2014C136.632 48.0124 135.847 46.0593 134.281 44.3379C132.698 42.6165 130.342 41.1352 127.205 39.8979C124.758 38.9338 122.98 37.9655 121.867 36.989C120.753 36.0124 120.197 34.9407 120.197 33.7738C120.197 32.4621 120.65 31.4441 121.559 30.72C122.469 29.9959 123.736 29.6359 125.361 29.6359C127.426 29.6359 129.287 30.4221 130.94 31.9986C132.594 33.5752 133.649 35.549 134.102 37.9283H135.332L135.336 37.9241Z" fill="#ECEBF3"/>
<path d="M154.676 57.0497C154.148 57.6041 153.234 57.8814 151.929 57.8814H151.535V59.1724H166.957V57.8814H166.541C165.178 57.8814 164.219 57.6083 163.662 57.0621C163.105 56.5159 162.827 55.5766 162.827 54.2483V30.2441H163.155C165.673 30.2441 167.63 30.8814 169.021 32.16C170.413 33.4386 171.248 35.3586 171.527 37.9242H172.844V28.3821H145.448V37.9242H146.919C147.197 35.3586 148.032 33.4345 149.424 32.16C150.816 30.8855 152.773 30.2441 155.29 30.2441H155.465V54.2483C155.465 55.5766 155.203 56.5076 154.676 57.0497Z" fill="#ECEBF3"/>
<path d="M0 21.0165H175V21.6083H0" fill="#A39159"/>
</g>
<defs>
<clipPath id="clip0_4_3">
<rect width="175" height="60" fill="white"/>
</clipPath>
</defs>
</svg>
